<?xml version="1.0" encoding="UTF-8"?>
<svg id="Layer_2" data-name="Layer 2" xmlns="http://www.w3.org/2000/svg" viewBox="0 0 233.3 81.7">
  <defs>
    <style>
      .cls-1, .cls-2, .cls-3, .cls-4, .cls-5 {
        stroke-width: 0px;
      }

      .cls-2 {
        fill: #00a651;
      }

      .cls-3 {
        fill: #fff;
      }

      .cls-4 {
        fill: #ff2a2c;
      }

      .cls-5 {
        fill: #0072ff;
      }
    </style>
  </defs>
  <g id="Layer_1-2" data-name="Layer 1">
    <g>
      <rect class="cls-1" x="76.75" y=".2" width="96.2" height="81.5"/>
      <path class="cls-1" d="m19.38,30.46c1.99,0,3.85-.5,5.57-1.5,1.72-1,3.05-2.34,4.02-4.04l7.2,4.15c-1.7,2.95-4.04,5.31-7.03,7.06-2.99,1.75-6.24,2.63-9.75,2.63s-6.75-.87-9.72-2.6c-2.97-1.74-5.33-4.09-7.06-7.06-1.74-2.97-2.6-6.21-2.6-9.72s.87-6.75,2.6-9.72c1.73-2.97,4.09-5.33,7.06-7.06C12.63.87,15.87,0,19.38,0s6.76.88,9.75,2.63c2.99,1.75,5.33,4.11,7.03,7.06l-7.2,4.15c-.96-1.7-2.3-3.05-4.02-4.04-1.72-1-3.57-1.5-5.57-1.5-3.03,0-5.63,1.08-7.81,3.24-2.18,2.16-3.27,4.77-3.27,7.84s1.08,5.68,3.24,7.84c2.16,2.16,4.77,3.24,7.84,3.24Z"/>
      <path class="cls-1" d="m41.7,33.06c-3.8-3.8-5.7-8.36-5.7-13.68s1.9-9.88,5.7-13.68c3.8-3.8,8.36-5.7,13.68-5.7s9.88,1.9,13.68,5.7c3.8,3.8,5.7,8.36,5.7,13.68s-1.9,9.88-5.7,13.68-8.36,5.7-13.68,5.7-9.88-1.9-13.68-5.7Zm21.51-5.84c2.16-2.16,3.24-4.77,3.24-7.84s-1.08-5.68-3.24-7.84c-2.16-2.16-4.77-3.24-7.84-3.24s-5.68,1.08-7.84,3.24c-2.16,2.16-3.24,4.77-3.24,7.84s1.08,5.68,3.24,7.84c2.16,2.16,4.77,3.24,7.84,3.24s5.68-1.08,7.84-3.24Z"/>
      <path class="cls-3" d="m105.88,33.06c-3.8-3.8-5.7-8.36-5.7-13.68s1.9-9.88,5.7-13.68,8.36-5.7,13.68-5.7,9.88,1.9,13.68,5.7c3.8,3.8,5.7,8.36,5.7,13.68s-1.9,9.88-5.7,13.68c-3.8,3.8-8.36,5.7-13.68,5.7s-9.88-1.9-13.68-5.7Zm21.51-5.84c2.16-2.16,3.24-4.77,3.24-7.84s-1.08-5.68-3.24-7.84c-2.16-2.16-4.77-3.24-7.84-3.24s-5.68,1.08-7.83,3.24c-2.16,2.16-3.24,4.77-3.24,7.84s1.08,5.68,3.24,7.84,4.77,3.24,7.83,3.24,5.68-1.08,7.84-3.24Z"/>
      <path class="cls-3" d="m140.52,22.68V.2h8.31v22.48c0,2.22.78,4.1,2.33,5.65s3.42,2.33,5.62,2.33,4.08-.78,5.65-2.33c1.57-1.55,2.35-3.43,2.35-5.65V.2h8.25v22.48c0,4.47-1.59,8.3-4.76,11.49-3.18,3.19-7,4.79-11.46,4.79s-8.3-1.6-11.49-4.79c-3.19-3.19-4.79-7.02-4.79-11.49Z"/>
      <path class="cls-1" d="m175.65,0h12.63c3.17,0,5.9,1.13,8.17,3.41s3.41,5.01,3.41,8.22c0,2.73-.86,5.16-2.58,7.28s-3.89,3.46-6.51,4.01l9.08,15.84h-9.53l-6.37-11.02v11.02h-8.31V0Zm8.31,8.31v8.97h3.16c1.22,0,2.27-.44,3.16-1.33.89-.89,1.33-1.94,1.33-3.16s-.44-2.27-1.33-3.16c-.89-.89-1.94-1.33-3.16-1.33h-3.16Z"/>
      <path class="cls-3" d="m76.7,0h8.31v30.46h15.89v8.31h-24.2V0Z"/>
      <path class="cls-1" d="m58.47,73.4c1.99,0,3.85-.5,5.57-1.5,1.72-1,3.05-2.34,4.02-4.04l7.2,4.15c-1.7,2.95-4.04,5.31-7.03,7.06-2.99,1.75-6.24,2.63-9.75,2.63s-6.75-.87-9.72-2.6c-2.97-1.74-5.33-4.09-7.06-7.06-1.74-2.97-2.6-6.21-2.6-9.72s.87-6.75,2.6-9.72c1.73-2.97,4.09-5.33,7.06-7.06,2.97-1.74,6.21-2.6,9.72-2.6s6.76.88,9.75,2.63c2.99,1.75,5.33,4.11,7.03,7.06l-7.2,4.15c-.96-1.7-2.3-3.05-4.02-4.04-1.72-1-3.57-1.5-5.57-1.5-3.03,0-5.63,1.08-7.81,3.24-2.18,2.16-3.27,4.77-3.27,7.84s1.08,5.68,3.24,7.84c2.16,2.16,4.77,3.24,7.84,3.24Z"/>
      <path class="cls-4" d="m76.8,42.94h8.31v30.46h15.89v8.31h-24.2v-38.76Z"/>
      <path class="cls-2" d="m105.98,76c-3.8-3.8-5.7-8.36-5.7-13.68s1.9-9.88,5.7-13.68,8.36-5.7,13.68-5.7,9.88,1.9,13.68,5.7c3.8,3.8,5.7,8.36,5.7,13.68s-1.9,9.88-5.7,13.68c-3.8,3.8-8.36,5.7-13.68,5.7s-9.88-1.9-13.68-5.7Zm21.51-5.84c2.16-2.16,3.24-4.77,3.24-7.84s-1.08-5.68-3.24-7.84c-2.16-2.16-4.77-3.24-7.84-3.24s-5.68,1.08-7.83,3.24c-2.16,2.16-3.24,4.77-3.24,7.84s1.08,5.68,3.24,7.84,4.77,3.24,7.83,3.24,5.68-1.08,7.84-3.24Z"/>
      <path class="cls-5" d="m140.43,65.42v-22.48h8.31v22.48c0,2.22.78,4.1,2.33,5.65s3.42,2.33,5.62,2.33,4.08-.78,5.65-2.33c1.57-1.55,2.35-3.43,2.35-5.65v-22.48h8.25v22.48c0,4.47-1.59,8.3-4.76,11.49-3.18,3.19-7,4.79-11.46,4.79s-8.3-1.6-11.49-4.79c-3.19-3.19-4.79-7.02-4.79-11.49Z"/>
      <path class="cls-1" d="m175.76,42.94h13.12c3.51,0,6.75.87,9.72,2.6,2.97,1.74,5.32,4.09,7.06,7.06,1.73,2.97,2.6,6.21,2.6,9.72s-.87,6.75-2.6,9.72c-1.74,2.97-4.09,5.33-7.06,7.06-2.97,1.74-6.21,2.6-9.72,2.6h-13.12v-38.76Zm8.31,30.46h4.82c3.06,0,5.68-1.09,7.84-3.27,2.16-2.18,3.24-4.79,3.24-7.84s-1.08-5.65-3.24-7.81-4.77-3.24-7.84-3.24h-4.82v22.15Z"/>
      <path class="cls-1" d="m209.15,71.79l8.25-.94c.11.74.53,1.35,1.25,1.83.72.48,1.56.72,2.52.72,1.03,0,1.93-.29,2.69-.89.76-.59,1.13-1.31,1.13-2.16,0-.63-.23-1.22-.69-1.77-.46-.55-1.06-1.02-1.8-1.38s-1.59-.78-2.55-1.22c-.96-.44-1.93-.87-2.91-1.27-.98-.41-1.95-.93-2.91-1.58-.96-.65-1.81-1.35-2.55-2.1-.74-.76-1.34-1.72-1.8-2.88-.46-1.16-.69-2.44-.69-3.85,0-3.14,1.18-5.81,3.54-8.03,2.36-2.21,5.22-3.32,8.58-3.32,3.06,0,5.73.95,8,2.85s3.61,4.25,4.01,7.06l-8.25.94c-.15-.74-.58-1.35-1.3-1.83-.72-.48-1.54-.72-2.46-.72-1.07,0-1.98.3-2.71.89-.74.59-1.11,1.29-1.11,2.1,0,.74.29,1.4.86,1.99.57.59,1.33,1.11,2.27,1.55s1.97.9,3.1,1.36c1.12.46,2.25,1.01,3.38,1.63,1.13.63,2.16,1.34,3.1,2.13.94.79,1.71,1.84,2.3,3.13.59,1.29.89,2.73.89,4.32,0,3.14-1.19,5.81-3.57,8.03-2.38,2.21-5.23,3.32-8.56,3.32-3.06,0-5.74-.95-8.03-2.85-2.29-1.9-3.62-4.25-3.99-7.06Z"/>
    </g>
  </g>
</svg>